<svg width="226" height="170" viewBox="0 0 226 170" fill="none" xmlns="http://www.w3.org/2000/svg">
<mask id="mask0_12_31" style="mask-type:alpha" maskUnits="userSpaceOnUse" x="0" y="0" width="226" height="170">
<rect width="226" height="170" fill="#D9D9D9"/>
</mask>
<g mask="url(#mask0_12_31)">
<path d="M55.2542 120.958C63.2583 116.354 72.2042 112.724 82.0917 110.068C91.9792 107.411 102.337 106.083 113.167 106.083C123.996 106.083 134.354 107.411 144.242 110.068C154.129 112.724 163.075 116.354 171.079 120.958C176.572 116.118 180.849 110.628 183.909 104.49C186.97 98.3507 188.5 91.7986 188.5 84.8333C188.5 69.1319 181.163 55.7622 166.489 44.724C151.814 33.6858 134.04 28.1667 113.167 28.1667C92.2931 28.1667 74.5191 33.6858 59.8448 44.724C45.1705 55.7622 37.8333 69.1319 37.8333 84.8333C37.8333 91.7986 39.3635 98.3507 42.424 104.49C45.4844 110.628 49.7611 116.118 55.2542 120.958ZM113.167 91.9167C103.907 91.9167 96.099 89.526 89.7427 84.7448C83.3865 79.9635 80.2083 74.0903 80.2083 67.125C80.2083 60.1597 83.3865 54.2865 89.7427 49.5052C96.099 44.724 103.907 42.3333 113.167 42.3333C122.426 42.3333 130.234 44.724 136.591 49.5052C142.947 54.2865 146.125 60.1597 146.125 67.125C146.125 74.0903 142.947 79.9635 136.591 84.7448C130.234 89.526 122.426 91.9167 113.167 91.9167ZM113.167 155.667C100.14 155.667 87.8986 153.807 76.4417 150.089C64.9847 146.37 55.0187 141.323 46.5437 134.948C38.0687 128.573 31.3594 121.076 26.4156 112.458C21.4719 103.84 19 94.6319 19 84.8333C19 75.0347 21.4719 65.8264 26.4156 57.2083C31.3594 48.5903 38.0687 41.0938 46.5437 34.7188C55.0187 28.3438 64.9847 23.2969 76.4417 19.5781C87.8986 15.8594 100.14 14 113.167 14C126.193 14 138.435 15.8594 149.892 19.5781C161.349 23.2969 171.315 28.3438 179.79 34.7188C188.265 41.0938 194.974 48.5903 199.918 57.2083C204.861 65.8264 207.333 75.0347 207.333 84.8333C207.333 94.6319 204.861 103.84 199.918 112.458C194.974 121.076 188.265 128.573 179.79 134.948C171.315 141.323 161.349 146.37 149.892 150.089C138.435 153.807 126.193 155.667 113.167 155.667ZM113.167 141.5C121.485 141.5 129.332 140.585 136.708 138.755C144.085 136.925 150.833 134.299 156.954 130.875C150.833 127.451 144.085 124.825 136.708 122.995C129.332 121.165 121.485 120.25 113.167 120.25C104.849 120.25 97.0014 121.165 89.625 122.995C82.2486 124.825 75.5 127.451 69.3792 130.875C75.5 134.299 82.2486 136.925 89.625 138.755C97.0014 140.585 104.849 141.5 113.167 141.5ZM113.167 77.75C117.247 77.75 120.622 76.7465 123.29 74.7396C125.958 72.7326 127.292 70.1944 127.292 67.125C127.292 64.0556 125.958 61.5174 123.29 59.5104C120.622 57.5035 117.247 56.5 113.167 56.5C109.086 56.5 105.712 57.5035 103.044 59.5104C100.376 61.5174 99.0417 64.0556 99.0417 67.125C99.0417 70.1944 100.376 72.7326 103.044 74.7396C105.712 76.7465 109.086 77.75 113.167 77.75Z" fill="#91AFA2"/>
</g>
</svg>
